<?xml version="1.0" encoding="UTF-8" standalone="no"?>
<svg
   id="svg941"
   version="1.2"
   viewBox="0 0 1334.223 1038.208"
   height="1038.208"
   width="1334.223"
   sodipodi:docname="LOGO.svg"
   inkscape:version="1.3.2 (091e20e, 2023-11-25)"
   xmlns:inkscape="http://www.inkscape.org/namespaces/inkscape"
   xmlns:sodipodi="http://sodipodi.sourceforge.net/DTD/sodipodi-0.dtd"
   xmlns="http://www.w3.org/2000/svg"
   xmlns:svg="http://www.w3.org/2000/svg"
   xmlns:rdf="http://www.w3.org/1999/02/22-rdf-syntax-ns#"
   xmlns:cc="http://creativecommons.org/ns#"
   xmlns:dc="http://purl.org/dc/elements/1.1/">
  <sodipodi:namedview
     id="namedview1"
     pagecolor="#ffffff"
     bordercolor="#000000"
     borderopacity="0.25"
     inkscape:showpageshadow="2"
     inkscape:pageopacity="0.0"
     inkscape:pagecheckerboard="0"
     inkscape:deskcolor="#d1d1d1"
     inkscape:zoom="0.22731476"
     inkscape:cx="666.47675"
     inkscape:cy="516.90441"
     inkscape:window-width="1440"
     inkscape:window-height="916"
     inkscape:window-x="0"
     inkscape:window-y="38"
     inkscape:window-maximized="0"
     inkscape:current-layer="layer1" />
  <metadata
     id="metadata947">
    <rdf:RDF>
      <cc:Work
         rdf:about="">
        <dc:format>image/svg+xml</dc:format>
        <dc:type
           rdf:resource="http://purl.org/dc/dcmitype/StillImage" />
        <dc:title>CALIOPE logo</dc:title>
        <dc:creator>Filippo Carnovalini</dc:creator>
      </cc:Work>
    </rdf:RDF>
  </metadata>
  <defs
     id="defs945" />
  <title
     id="title833">CALIOPE logo</title>
  <desc
     id="desc835">Logo for project CALIOPE</desc>
  <g
     style="display:inline"
     id="layer1"
     transform="translate(-900.869,-436.03399)">
    <path
       style="font-size:274.644px;line-height:1.25;font-family:Kanit;-inkscape-font-specification:Kanit;stroke-width:6.8661"
       d="m 1020.2,1444.0423 q -43.66838,0 -66.18919,-23.894 -22.24616,-23.894 -22.24616,-64.5413 0,-29.1123 9.3379,-49.9852 9.61254,-21.1476 29.11226,-32.408 19.49973,-11.5351 49.71059,-11.5351 15.38,0 28.0137,2.4718 12.9082,2.1972 23.894,6.0422 v 26.0912 q -10.9858,-4.3943 -23.6194,-6.5915 -12.359,-2.4718 -26.0912,-2.4718 -32.95725,0 -46.68945,17.5772 -13.45756,17.5772 -13.45756,50.8092 0,31.0347 14.83078,47.2387 14.83077,15.9294 45.86553,15.9294 12.6336,0 25.2673,-1.9225 12.9082,-2.1972 24.1686,-6.5915 v 26.3659 q -10.9857,3.5703 -23.894,5.4928 -12.6336,1.9225 -28.0137,1.9225 z m 64.8158,-2.7464 67.5624,-176.8707 h 33.5066 l 67.0131,176.8707 h -30.7601 l -17.5772,-45.5909 h -71.1328 l -17.5772,45.5909 z m 53.2809,-68.661 h 61.5203 l -30.7601,-81.02 z m 144.1884,68.661 v -176.8707 h 29.9362 v 153.8006 h 90.6325 v 23.0701 z m 377.8518,0 v -176.8707 h 29.9362 v 176.8707 z m 142.8151,2.7464 q -42.0206,0 -62.8935,-21.9715 -20.8729,-22.2461 -20.8729,-68.661 0,-48.3373 20.8729,-70.0342 20.8729,-21.6969 62.8935,-21.6969 42.2952,0 62.8935,21.6969 20.8729,21.6969 20.8729,70.0342 0,46.4149 -20.8729,68.661 -20.5983,21.9715 -62.8935,21.9715 z m 0,-25.2672 q 27.739,0 40.6473,-15.1054 13.1829,-15.3801 13.1829,-50.2599 0,-36.8023 -13.1829,-51.3584 -12.9083,-14.8308 -40.6473,-14.8308 -27.4644,0 -40.6473,14.8308 -12.9083,14.5561 -12.9083,51.3584 0,34.8798 12.9083,50.2599 13.1829,15.1054 40.6473,15.1054 z m 112.8785,22.5208 v -176.8707 h 78.8228 q 20.3237,0 33.5066,7.69 13.1829,7.69 19.4997,21.1476 6.3168,13.1829 6.3168,30.2108 0,26.3658 -16.4786,42.2952 -16.204,15.9293 -43.9431,15.9293 h -47.788 v 59.5978 z m 29.9362,-83.2171 h 42.2952 q 17.8518,0 26.9151,-9.3379 9.0632,-9.3379 9.0632,-25.2673 0,-17.0279 -8.7886,-26.3658 -8.514,-9.3379 -25.8165,-9.3379 h -43.6684 z m 132.1038,83.2171 v -176.8707 h 123.3152 v 23.3447 h -93.379 v 53.5556 h 83.2172 v 23.0701 h -83.2172 v 53.8302 h 93.379 v 23.0701 z"
       id="text966"
       aria-label="CAL    IOPE" />
    <path
       d="m 1471.377,1280.8027 c -2.0633,0 -4.093,0.015 -6.0938,0.049 -14.1083,0.2418 -26.7393,1.5419 -38.9473,6.8222 -5.2383,2.2657 -12.8556,5.8395 -13.4726,10.5664 -0.01,0.042 -0.012,0.106 -0.018,0.1563 -0.043,0.1369 -0.047,0.2864 -0.039,0.4394 -0.01,0.1495 -0.018,0.2984 -0.01,0.375 0.03,0.1828 2,12.2618 2,12.2618 0.8772,5.3778 20.4073,12.7939 31.8086,16.1972 17.7993,5.3132 36.5154,7.2061 55.209,7.8203 6.397,0.2063 12.6867,0.2665 18.6386,0.2676 6.1747,-3e-4 12.3858,-0.063 18.5996,-0.2676 18.6936,-0.6142 37.4097,-2.5071 55.209,-7.8203 11.4013,-3.4033 30.9314,-10.8194 31.8086,-16.1972 0,0 1.97,-12.079 2,-12.2618 0.013,-0.077 0,-0.2255 -0.01,-0.375 0.01,-0.153 0,-0.3025 -0.039,-0.4394 -0.01,-0.05 -0.012,-0.114 -0.018,-0.1563 -0.617,-4.7269 -8.2343,-8.3007 -13.4726,-10.5664 -12.208,-5.2803 -24.839,-6.5804 -38.9473,-6.8222 -2.003,-0.035 -4.036,-0.049 -6.1016,-0.049 h -0.031 v 0 c -16.6054,0 -32.4147,8.8642 -49.0195,8.8711 -16.6048,-0.01 -32.4141,-8.8711 -49.0195,-8.8711 v 0 h -0.031 z"
       style="stroke-width:6.81116"
       id="path935" />
    <path
       class="Stem"
       d="m 1022.69,663.165 v 64.281"
       transform="matrix(6.8660891,0,0,7.6300286,-5611.2916,-4347.3589)"
       style="fill:none;stroke:#000000;stroke-width:4.69961;stroke-linejoin:bevel;stroke-miterlimit:4;stroke-dasharray:none"
       id="polyline897" />
    <path
       class="Note"
       d="m 1559.423,664.42032 c 0,27.66539 20.8095,58.54768 75.183,58.54768 69.8129,0 142.982,-54.6874 142.982,-111.30494 0,-37.95949 -33.5638,-59.19106 -75.183,-59.19106 -65.114,0 -142.982,52.75724 -142.982,111.94832"
       id="path899"
       style="stroke-width:6.5718" />
    <path
       style="stroke-width:6.57181"
       class="Note"
       d="m 1209.837,747.29931 c 0,27.66539 20.8095,58.54769 75.1832,58.54769 69.8128,0 142.9818,-54.68741 142.9818,-111.30495 0,-37.95946 -33.5641,-59.19105 -75.1831,-59.19105 -65.1136,0 -142.9819,52.75725 -142.9819,111.94831"
       id="path901" />
    <path
       class="Articulation"
       d="m 1433.5776,619.96259 c -1.0904,-1.63564 -17.9927,-20.71849 -40.3473,-34.34912 -37.62,-22.3542 -69.7883,-32.71348 -113.9517,-32.71348 -44.7085,0 -76.8768,10.35928 -114.4973,32.71348 -22.3543,13.63063 -38.7109,32.16825 -40.3467,34.34912 -1.0905,1.09047 -1.6356,2.18094 -1.6356,3.81659 0,3.27141 2.1809,3.81658 4.907,3.81658 0,0 2.181,0 4.3618,-1.63564 2.7261,-1.6357 16.9019,-12.54022 39.8014,-22.89951 20.7185,-9.2688 51.2511,-19.62802 107.4094,-19.62802 52.8868,0 103.5929,10.35922 146.6652,42.52753 2.1813,1.63564 4.362,1.63564 4.362,1.63564 2.1814,0 4.9073,-1.63564 4.9073,-4.36183 0,-0.54515 0,-1.0904 -1.6355,-3.27134"
       id="path933"
       style="stroke-width:5.45224" />
    <path
       id="path1326"
       d="m 1504.0677,1406.8691 c 4.6825,4.0972 10.5359,6.4387 16.3892,6.4387 5.8533,0 11.7065,-2.3415 16.3891,-6.4387 8.7798,-9.3653 8.7798,-23.413 0,-32.7782 -4.6826,-4.6825 -10.5358,-6.4386 -16.3891,-6.4386 -5.8533,0 -11.7067,1.7561 -16.3892,6.4386 -8.7798,9.3652 -8.7798,23.4129 0,32.7782"
       style="stroke-width:5.85325" />
    <path
       class="Hook"
       d="m 1635.1447,1064.1272 c 0,0 -41.8262,34.0554 -68.2627,41.1194 -26.4373,7.064 -60.973,-4.4334 -84.4797,-1.686 -23.5068,2.7475 -55.6793,14.3748 -55.6793,14.3748 l -16.7221,1.0992 0.5882,84.0403 h 16.1339 c 0,0 36.9334,-25.3488 62.9004,-32.764 25.9668,-7.4153 66.3202,0.3858 90.8417,-6.9276 24.5215,-7.3134 54.6796,-30.1251 54.6796,-30.1251 v -69.131"
       id="path939"
       style="stroke-width:6.81116" />
    <path
       style="stroke-width:5.45224"
       id="path933-5"
       d="m 1862.013,528.99659 c -1.0903,-1.63564 -17.9925,-20.71849 -40.3471,-34.34912 -37.6201,-22.35419 -69.7883,-32.71348 -113.9517,-32.71348 -44.7086,0 -76.8768,10.35929 -114.4976,32.71348 -22.3538,13.63063 -38.711,32.16825 -40.3465,34.34912 -1.0904,1.09048 -1.6355,2.18095 -1.6355,3.81659 0,3.27142 2.1806,3.81659 4.9065,3.81659 0,0 2.1815,0 4.3621,-1.63565 2.7257,-1.63571 16.9022,-12.54023 39.8013,-22.8995 20.7184,-9.26882 51.2513,-19.62802 107.4097,-19.62802 52.8867,0 103.5928,10.3592 146.6651,42.52752 2.1813,1.63565 4.362,1.63565 4.362,1.63565 2.1814,0 4.9072,-1.63565 4.9072,-4.36183 0,-0.54517 0,-1.0904 -1.6355,-3.27135"
       class="Articulation" />
    <rect
       y="554.34052"
       x="971.72107"
       height="669.61761"
       width="1194.1119"
       id="rect1470"
       style="fill:none;stroke:#000000;stroke-width:19.6456;stroke-linecap:round;stroke-linejoin:round;stroke-miterlimit:4;stroke-dasharray:none;stroke-dashoffset:0;stroke-opacity:1;paint-order:stroke fill markers" />
    <path
       style="fill:none;stroke:#000000;stroke-width:19.8425;stroke-linecap:butt;stroke-linejoin:miter;stroke-miterlimit:4;stroke-dasharray:none;stroke-opacity:1"
       d="M 971.81949,888.48618 H 2165.7345"
       id="path1472-6" />
    <path
       id="path1472-6-5"
       d="M 971.81948,1056.173 H 2165.7345"
       style="fill:none;stroke:#000000;stroke-width:19.8425;stroke-linecap:butt;stroke-linejoin:miter;stroke-miterlimit:4;stroke-dasharray:none;stroke-opacity:1" />
    <path
       style="fill:none;stroke:#000000;stroke-width:19.8425;stroke-linecap:butt;stroke-linejoin:miter;stroke-miterlimit:4;stroke-dasharray:none;stroke-opacity:1"
       d="M 971.81947,720.7994 H 2165.7345"
       id="path1472-6-5-9" />
  </g>
</svg>
